mtllib materials.mtl
v 0.0006278455 -0.01276338 -0.04386276
v 0.02031747 -0.02513707 -0.01060194
v 0.0318698 0.01157081 -0.002738357
v -0.009525329 0.01078486 0.0617435
v -0.02107775 -0.02592301 0.0538798
v -0.06411025 -0.011163 0.05249816
v -0.05255795 0.02554476 0.06036174
v -0.02137858 0.04821372 -0.07760674
v -0.03670382 0.002687573 -0.08757299
v 0.0114885 0.03476727 -0.03429109
v -0.1023084 0.003567576 0.01417565
v -0.06815547 -0.0007699728 0.01970559
v -0.1153384 0.001995683 0.04061031
v -0.11391 0.02748024 0.04492551
v -0.05526005 0.04036069 0.02942944
v -0.09953713 0.03347468 0.02035099
v -0.1397895 0.01004255 0.02889597
v -0.04858917 0.002854347 -0.0690465
v -0.06089398 0.003027081 -0.0498662
v -0.07512763 0.003226876 -0.02767926
v -0.09076256 0.003446221 -0.003307998
v -0.08044532 0.05099034 0.007072449
v -0.05976792 0.04875672 -0.01779354
v -0.04588613 0.04856038 -0.03942215
v -0.06488049 0.05390298 -0.1129709
v -0.123686 0.02930248 -0.05119276
v -0.1348565 0.0275178 -0.02642697
v -0.1061863 0.02943957 -0.0792796
v -0.1204199 0.02963936 -0.05709261
v -0.09945691 0.02775657 -0.1071789
v -0.1117618 0.02792919 -0.08799863
v -0.1241307 0.05968595 -0.01800555
v -0.1123824 0.06146073 -0.04366064
v -0.2230991 0.03411758 -0.07747638
v -0.1073868 0.0661695 -0.04849923
v -0.09350517 0.0659734 -0.07012773
v -0.2029217 0.05139136 -0.1145335
v -0.09864038 0.06905353 -0.07860583
v -0.08642986 0.06888092 -0.09763074
v -0.03367564 0.04838765 -0.05844706
v -0.1727182 0.03536844 -0.1316694
v -0.07831928 0.01278591 -0.1218859
v -0.09020463 0.01295269 -0.1033595
v -0.07717761 0.05407691 -0.09381115
v -0.1142816 0.03052664 -0.1486547
v -0.2180327 0.05305851 -0.07220876
v -0.2026034 0.0520246 -0.09268975
v -0.2082477 0.03309369 -0.09706807
v -0.1843365 0.06928396 -0.1269942
v -0.1974348 0.07028461 -0.1101452
v -0.1894716 0.05038702 -0.131941
v -0.1690294 0.05444634 -0.1275332
v -0.1576022 0.05346918 -0.1417784
v -0.1611968 0.03439116 -0.1460701
v -0.1182882 0.01145554 -0.1523132
v -0.1301734 0.01162243 -0.1337867
v -0.1265788 0.03070068 -0.129495
v -0.1384532 0.02389979 0.03628272
v -0.1327913 0.01200998 0.01162601
v -0.1319984 0.02588046 0.01982152
vn 0.8271627 -0.143949 -0.5432131
vn -0.09331246 -0.1803915 0.9791587
vn 0.3110679 0.9266716 0.2109894
vn -0.3110705 -0.9266699 -0.2109933
vn 0.7382098 -0.1025441 -0.6667315
vn 0.7884671 -0.355643 0.5018343
vn 0.4057802 0.8415484 0.3565652
vn -0.289193 -0.9404492 -0.1786699
vn -0.07361965 -0.9532617 -0.2930398
vn -0.2546889 -0.1252589 0.9588763
vn -0.0815116 0.8960885 0.436327
vn 0.1714894 0.1754234 -0.9694422
vn -0.2327907 -0.9572556 -0.1716688
vn -0.2331982 -0.9621614 -0.1409406
vn -0.7072296 0.05510059 0.7048336
vn -0.3805239 -0.8941211 -0.2361125
vn 0.627053 -0.04078796 -0.777908
vn -0.3706966 -0.8995991 -0.2308797
vn -0.3734893 -0.8982798 -0.2315151
vn -0.3118668 -0.9305874 -0.1916933
vn -0.2103254 -0.9642811 -0.1610132
vn 0.1797338 0.1829242 -0.9665582
vn -0.1789046 0.9748151 0.1331493
vn -0.5078751 -0.07711212 0.8579724
vn 0.1981016 0.9771556 0.07695974
vn 0.4519525 0.04463308 -0.8909248
vn -0.02615213 -0.9961579 -0.08358012
vn -0.5435652 -0.0009436196 0.8393665
vn 0.2511677 0.9558495 0.1525337
vn 0.5480915 0.01476523 -0.836288
vn -0.1823448 -0.9772658 -0.1081757
vn -0.5934755 0.01101738 0.8047767
vn 0.2553906 0.9542909 0.155256
vn 0.5943812 -0.007484437 -0.8041487
vn -0.08759347 -0.9950357 -0.04723693
vn -0.1606997 -0.9824931 -0.09424977
vn -0.6286309 0.02495134 0.7773034
vn 0.09031126 0.9947108 0.04893208
vn 0.5911494 -0.0183788 -0.8063526
vn 0.630226 -0.03784277 -0.775489
vn -0.63301 0.02084393 0.773863
vn -0.5974506 0.00748009 0.8018709
vn 0.5986613 -0.003665615 -0.800994
vn -0.4957172 -0.06150628 0.8663033
vn -0.0870383 0.9957819 0.02903128
vn 0.4754755 0.04706826 -0.8784689
vn -0.7370275 0.3549368 -0.5751612
vn -0.5038545 -0.1037157 0.8575394
vn -0.5696036 0.0098856 0.8218601
vn 0.03003689 0.9994967 0.01021128
vn 0.5311711 0.02775614 -0.8468097
vn -0.730341 0.3501644 -0.5865041
vn -0.5699339 -0.005821749 0.82167
vn -0.1371631 0.9857898 -0.09697767
vn 0.5217207 0.03266373 -0.8524909
vn -0.740695 0.2766193 -0.6122522
vn 0.01774994 -0.9996346 0.0203885
vn -0.5845433 -0.003214202 0.8113561
vn -0.2976516 0.9335929 -0.1995193
vn -0.8092672 0.2699713 -0.5217299
vn -0.6030614 -0.06521596 0.7950244
vn 0.6049903 0.02556757 -0.7958222
vn 0.5376551 0.08735079 -0.8386281
vn -0.5862489 -0.06177697 0.8077722
vn 0.5456792 0.07030682 -0.8350397
vn -0.5655346 -0.02721064 0.8242757
vn -0.4905645 -0.06394486 0.8690556
vn -0.05178637 -0.9985745 0.01293422
vn -0.05443541 0.9943436 -0.09120151
vn 0.05626442 0.9982949 -0.01554742
vn -0.2456951 -0.1484304 0.9579157
vn -0.3103334 -0.1417733 0.9399966
vn -0.1871902 0.9739369 0.1280894
vn 0.1335891 0.188518 -0.9729413
vn -0.9077719 0.256308 -0.3320487
vn -0.2449842 -0.9471346 -0.2071687
vn -0.2281382 0.9732363 0.02764475
vn -0.497638 -0.3701659 0.7844321
vn -0.1054673 0.5103217 -0.853492
vn 0.4163221 0.833642 0.3629281
vn 0.2469233 0.9531037 0.1749927
vn -0.1772827 -0.9841408 -0.00614901
vn -0.37573 -0.8957662 -0.23755
vn 0.1241953 0.9843565 0.1249709
vn -0.09937333 -0.9949781 -0.0119807
vn -0.1139432 0.9807337 -0.1586772
vn -0.1891853 -0.9778306 -0.08975703
vn 0.8137927 -0.06976398 -0.5769528
vn 0.7869202 -0.05606192 -0.6145027
vn 0.2275332 0.9654458 0.1270559
vn -0.6678904 -0.0175159 0.7440535
vn -0.38051 -0.8941298 -0.2361018
vn 0.09031072 0.9947109 0.04893234
vn 0.2553951 0.9542904 0.1552525
vn -0.3804911 -0.8941419 -0.2360868
vn 0.2511719 0.9558489 0.1525308
vt -0.1070123 0.1114809
vt -0.1029608 0.1117161
vt -0.1031028 0.1156414
vt 0.1012622 0.06547607
vt 0.09831075 0.06288441
vt 0.1013781 0.05952178
vt 0.1043295 0.06211342
vt 0.101796 0.05148491
vt 0.09841134 0.04460996
vt 0.1010207 0.04088074
vt -0.100945 0.04091853
vt -0.09833569 0.04464773
vt -0.1017203 0.05152269
vt -0.1250907 0.09317596
vt -0.123986 0.08839602
vt -0.1183579 0.09033343
vt 0.03178662 0.1435536
vt 0.03662998 0.1376154
vt 0.03967375 0.140098
vt 0.03483038 0.1460362
vt 0.1148992 0.05646111
vt 0.1185492 0.06733029
vt 0.1141422 0.06706661
vt -0.09847028 0.04889602
vt -0.1025251 0.04872424
vt -0.09737239 0.03832039
vt -0.1024007 0.06399892
vt -0.09701989 0.06557803
vt -0.1002747 0.06676267
vt 0.1129769 0.04989388
vt 0.1122668 0.05684774
vt 0.1095037 0.05405616
vt 0.1061229 0.08421735
vt 0.1051007 0.09033402
vt 0.1019424 0.08896967
vt -0.1092445 0.05201421
vt -0.1048283 0.05345529
vt -0.1080888 0.05643772
vt -0.1000297 0.03583509
vt -0.09774165 0.03749739
vt -0.09948698 0.03987736
vt -0.102915 0.04680154
vt -0.1018089 0.0448985
vt -0.1006636 0.0429283
vt -0.0993389 0.04064926
vt -0.09788372 0.03814585
vt -0.09714107 0.04824758
vt 0.1243508 0.07779498
vt 0.1229651 0.08371346
vt 0.1215888 0.07951445
vt -0.1129888 0.04109807
vt -0.1138285 0.04422913
vt -0.114828 0.04659693
vt -0.1333421 0.06881971
vt -0.1270246 0.067977
vt -0.1290343 0.07245245
vt -0.1178723 0.04105689
vt -0.1163976 0.03876818
vt -0.1115199 0.04137396
vt -0.1126703 0.04403121
vt -0.1194116 0.0440714
vt -0.1183689 0.0416503
vt -0.1128434 0.04401911
vt -0.1138862 0.04644021
vt -0.1156114 0.04328147
vt -0.1145921 0.04124329
vt -0.1082998 0.04389385
vt -0.1093192 0.04593202
vt -0.0975441 0.04039118
vt -0.09576665 0.03803511
vt -0.09221214 0.04212821
vt -0.1089657 0.05058248
vt -0.1063221 0.04902869
vt -0.1045527 0.0520332
vt 0.07742027 0.07349599
vt 0.0792212 0.07578091
vt 0.07681384 0.07966776
vt 0.1289585 0.04685595
vt 0.125504 0.0506237
vt 0.122256 0.04685584
vt 0.09573767 0.03288182
vt 0.09110609 0.03669447
vt 0.08971659 0.03376567
vt -0.1287292 0.05255308
vt -0.126738 0.04968575
vt -0.1216393 0.05283378
vt -0.1245066 0.05681427
vt -0.09581582 0.04222511
vt -0.08774804 0.04849204
vt -0.0896336 0.05045615
vt 0.1305024 0.05623835
vt 0.1324364 0.05970838
vt 0.127592 0.06312423
vt 0.1251087 0.05889349
vt 0.10594 0.03790656
vt 0.1072011 0.04014595
vt 0.1007758 0.04081629
vt -0.1322103 0.05748608
vt -0.1302484 0.05403013
vt -0.1248763 0.0567285
vt -0.1273933 0.0609404
vt -0.1079817 0.03297669
vt -0.09908947 0.03814579
vt -0.100494 0.04037657
vt 0.1342443 0.06258877
vt 0.1284063 0.06623582
vt 0.1261448 0.06188132
vt 0.1086824 0.04008802
vt 0.1097853 0.0420614
vt 0.1024745 0.0430622
vt -0.1343107 0.06191152
vt -0.1262108 0.0612208
vt -0.1284807 0.06557143
vt -0.09777535 0.03907543
vt -0.09142388 0.04313011
vt -0.09274506 0.04498691
vt -0.1007016 0.0452822
vt -0.09950301 0.04343598
vt -0.09458636 0.04587291
vt -0.09578498 0.04771913
vt 0.1330741 0.0663442
vt 0.1288102 0.07002838
vt 0.1267537 0.06557294
vt 0.09117464 0.04625227
vt 0.09249152 0.04810949
vt 0.08624613 0.04898429
vt -0.1349923 0.05718513
vt -0.1307151 0.0594103
vt -0.1327673 0.06332125
vt -0.1333453 0.06850776
vt -0.1315084 0.06449122
vt -0.1270285 0.06766026
vt 0.1267593 0.06512223
vt 0.1312013 0.0619004
vt 0.133079 0.06589978
vt 0.1261532 0.06144151
vt 0.132188 0.05824804
vt 0.1342523 0.06215379
vt -0.1343208 0.06142257
vt -0.1322492 0.05752008
vt -0.1262213 0.06072672
vt 0.1345413 0.04004546
vt 0.1291837 0.04949483
vt 0.1272184 0.04660601
vt 0.08481528 0.05072535
vt 0.07857971 0.05975826
vt 0.07655741 0.05778244
vt -0.1341069 0.04269338
vt -0.1329027 0.04106755
vt -0.1273338 0.0489214
vt -0.1292917 0.0518115
vt -0.04220073 0.1316678
vt -0.04382408 0.1296802
vt -0.04213721 0.1285505
vt -0.04058041 0.1304559
vt 0.1257251 0.03958798
vt 0.1315757 0.03121339
vt 0.1328397 0.03280212
vt 0.1392492 0.05220998
vt 0.1330149 0.0621192
vt 0.1311843 0.05859352
vt 0.09146953 0.04048573
vt 0.08299221 0.04704972
vt 0.08144215 0.0449997
vt -0.1380465 0.04666455
vt -0.1294448 0.05173691
vt -0.1314875 0.05514577
vt -0.0426911 0.1346634
vt -0.04403771 0.1330048
vt -0.04241278 0.131812
vt -0.04102499 0.1335218
vt 0.1378442 0.05132291
vt 0.1336264 0.05892739
vt 0.1314247 0.0550974
vt 0.07193893 0.0545719
vt 0.06663473 0.06172154
vt 0.0651551 0.06001233
vt -0.1353393 0.04601146
vt -0.1293269 0.05004161
vt -0.1317519 0.05373486
vt -0.05000578 0.1384569
vt -0.05112752 0.1370125
vt -0.04944716 0.1359527
vt -0.04831458 0.1374115
vt -0.08638497 0.05052904
vt -0.08501953 0.04880255
vt -0.08084039 0.05159283
vt -0.08220581 0.05331933
vt 0.1342951 0.05333165
vt 0.1322198 0.05952002
vt 0.1300755 0.05565698
vt 0.05290257 0.07491938
vt 0.05446234 0.07657787
vt 0.04947305 0.08078615
vt 0.04791329 0.07912766
vt -0.0398135 0.1473929
vt -0.03814862 0.146306
vt -0.036782 0.1480316
vt -0.03839999 0.1491777
vt 0.1289469 0.04509781
vt 0.131878 0.0410162
vt 0.1330708 0.04260691
vt -0.1343228 0.04990245
vt -0.1331929 0.04827316
vt -0.1301043 0.05223699
vt -0.1334828 0.03632645
vt -0.1321727 0.03483086
vt -0.1276205 0.04057204
vt 0.1303618 0.04567397
vt 0.1354288 0.04009657
vt 0.1366411 0.04167046
vt -0.13687 0.03927048
vt -0.1357024 0.0376224
vt -0.1284042 0.04456655
vt 0.1382041 0.04568924
vt 0.1392792 0.04739434
vt 0.1323202 0.05581041
vt 0.122256 0.04914533
vt 0.126978 0.04626703
vt 0.1289585 0.04914543
vt -0.08051236 0.03912427
vt -0.08769493 0.03271281
vt -0.08635519 0.03064894
vt 0.07189859 0.03769372
vt 0.07341389 0.03976493
vt 0.06604715 0.04698006
vt 0.07961198 0.03959563
vt 0.0884611 0.03319632
vt 0.0896031 0.03500198
vt 0.1112974 0.04776695
vt 0.1135342 0.04907008
vt 0.1107047 0.05473182
vt 0.1166712 0.04356291
vt 0.1158706 0.0460645
vt 0.1136674 0.04470544
vt 0.07829641 0.07206045
vt 0.07843301 0.07637102
vt 0.07662816 0.07408919
vt -0.1064248 0.04954977
vt -0.1044426 0.05202786
vt -0.1071074 0.05354488
vt -0.03041897 0.1511081
vt -0.03153994 0.1497264
vt -0.03007162 0.149154
vt -0.02888636 0.1506052
vt -0.1029398 0.04311579
vt -0.1047809 0.04053121
vt -0.1035851 0.03908863
vt 0.06654283 0.070924
vt 0.06789053 0.07208559
vt 0.06678194 0.07523009
vt 0.1004369 -0.00593797
vt 0.1018998 -0.008358341
vt 0.1032343 -0.007519956
vt -0.06588158 0.05034972
vt -0.06596203 0.0470165
vt -0.06441123 0.04657282
vt 0.1156466 0.05721399
vt 0.1186506 0.0588908
vt 0.1191838 0.06812039
vt 0.1003977 0.05099623
vt 0.09804362 0.042056
vt 0.1013556 0.0408305
vt -0.08213846 0.02853665
vt -0.07914386 0.02980833
vt -0.08242718 0.03866153
vt -0.1102961 0.05201093
vt -0.1091593 0.04263718
vt -0.1059958 0.04122679
vt 0.09106047 0.04602661
vt 0.09522511 0.04306264
vt 0.0970882 0.04518926
vt -0.08956574 0.04026804
vt -0.09542763 0.03587239
vt -0.09449946 0.03427574
vt 0.06499176 0.04740915
vt 0.06608091 0.04887828
vt 0.05983199 0.05466373
vt -0.09905846 0.03768495
vt -0.1074912 0.03217371
vt -0.1064792 0.03021788
vt -0.1093115 0.1026921
vt -0.113709 0.1030816
vt -0.112825 0.09819224
vt -0.1163815 0.0906599
vt -0.1176142 0.09547319
vt -0.122968 0.09382689
vt 0.1009676 0.04582858
vt 0.0954762 0.04693216
vt 0.09606454 0.03673837
vt 0.1260576 0.06165844
vt 0.128484 0.06600109
vt 0.1253881 0.06769998
vt -0.1157058 0.04867863
vt -0.1165912 0.05077611
vt -0.1129874 0.04109706
vt 0.09249152 0.04810957
vt 0.08756302 0.05084159
vt 0.08624613 0.04898437
vt 0.1097852 0.04206062
vt 0.1035774 0.04503481
vt 0.1024744 0.04306142
vt -0.1148247 0.04659443
vt -0.1157039 0.04867714
vt -0.1129853 0.04109563
vt 0.1072011 0.04014526
vt 0.1020368 0.04305501
vt 0.1007757 0.0408156
o group2117853422
g mesh2117853422
usemtl mat21
f 3/3/1 2/2/1 1/1/1
f 7/7/2 6/6/2 5/5/2 4/4/2
f 7/10/3 4/9/3 3/8/3
f 2/13/4 5/12/4 6/11/4
f 1/16/5 9/15/5 8/14/5
f 3/20/6 4/19/6 5/18/6 2/17/6
f 3/23/7 10/22/7 7/21/7
f 6/26/8 1/25/8 2/24/8
f 12/29/9 6/28/9 11/27/9
f 6/32/10 7/31/10 13/30/10
f 7/35/11 15/34/11 14/33/11
f 15/38/12 12/37/12 16/36/12
f 11/41/13 13/40/13 17/39/13
f 1/47/14 21/46/14 20/45/14 19/44/14 18/43/14 9/42/14
f 12/50/15 15/49/15 21/48/15
f 24/53/16 23/52/16 22/51/16
f 8/56/17 9/55/17 25/54/17
f 20/60/18 21/59/18 27/58/18 26/57/18
f 19/64/19 20/63/19 29/62/19 28/61/19
f 18/68/20 19/67/20 31/66/20 30/65/20
f 6/71/21 13/70/21 11/69/21
f 12/74/22 11/73/22 16/72/22
f 15/77/23 16/76/23 14/75/23
f 21/80/24 22/79/24 32/78/24
f 22/83/25 23/82/25 33/81/25
f 23/87/26 20/86/26 26/85/26 33/84/26
f 26/90/27 27/89/27 34/88/27
f 20/94/28 23/93/28 35/92/28 29/91/28
f 23/97/29 36/96/29 35/95/29
f 24/101/30 19/100/30 28/99/30 36/98/30
f 28/104/31 29/103/31 37/102/31
f 19/107/32 24/106/32 38/105/32
f 24/110/33 39/109/33 38/108/33
f 40/113/34 18/112/34 39/111/34
f 30/116/35 31/115/35 41/114/35
f 9/120/36 18/119/36 43/118/36 42/117/36
f 18/123/37 40/122/37 44/121/37
f 40/126/38 25/125/38 44/124/38
f 25/129/39 42/128/39 45/127/39
f 9/132/40 42/131/40 25/130/40
f 44/135/41 43/134/41 18/133/41
f 38/138/42 31/137/42 19/136/42
f 18/141/43 30/140/43 39/139/43
f 27/144/44 32/143/44 46/142/44
f 32/147/45 33/146/45 46/145/45
f 33/151/46 26/150/46 48/149/46 47/148/46
f 48/155/47 34/154/47 46/153/47 47/152/47
f 46/158/48 34/157/48 27/156/48
f 29/161/49 35/160/49 37/159/49
f 35/164/50 36/163/50 49/162/50
f 36/167/51 28/166/51 49/165/51
f 51/171/52 37/170/52 50/169/52 49/168/52
f 31/174/53 38/173/53 52/172/53
f 38/177/54 39/176/54 52/175/54
f 39/180/55 30/179/55 53/178/55
f 54/184/56 41/183/56 52/182/56 53/181/56
f 42/188/57 43/187/57 56/186/57 55/185/57
f 43/191/58 44/190/58 57/189/58
f 44/195/59 25/194/59 45/193/59 57/192/59
f 45/199/60 55/198/60 56/197/60 57/196/60
f 57/202/61 56/201/61 43/200/61
f 42/205/62 55/204/62 45/203/62
f 30/208/63 54/207/63 53/206/63
f 52/211/64 41/210/64 31/209/64
f 28/214/65 51/213/65 49/212/65
f 35/217/66 50/216/66 37/215/66
f 32/220/67 27/219/67 21/218/67
f 34/223/68 48/222/68 26/221/68
f 33/226/69 47/225/69 46/224/69
f 49/229/70 50/228/70 35/227/70
f 7/232/71 14/231/71 13/230/71
f 13/235/72 14/234/72 58/233/72
f 14/238/73 16/237/73 58/236/73
f 16/241/74 11/240/74 59/239/74
f 59/245/75 17/244/75 58/243/75 60/242/75
f 17/248/76 59/247/76 11/246/76
f 16/251/77 60/250/77 58/249/77
f 58/254/78 17/253/78 13/252/78
f 59/257/79 60/256/79 16/255/79
f 10/260/80 15/259/80 7/258/80
f 22/263/81 15/262/81 10/261/81
f 1/266/82 12/265/82 21/264/82
f 6/269/83 12/268/83 1/267/83
f 33/272/84 32/271/84 22/270/84
f 41/275/85 54/274/85 30/273/85
f 39/278/86 53/277/86 52/276/86
f 37/281/87 51/280/87 28/279/87
f 1/284/88 10/283/88 3/282/88
f 8/287/89 10/286/89 1/285/89
f 22/290/90 10/289/90 8/288/90
f 15/293/91 22/292/91 21/291/91
f 22/296/92 8/295/92 40/294/92
f 40/299/93 8/298/93 25/297/93
f 24/302/94 40/301/94 39/300/94
f 22/305/95 40/304/95 24/303/95
f 23/308/96 24/307/96 36/306/96
