<svg id="Layer_1" xmlns="http://www.w3.org/2000/svg" viewBox="0 0 300 200"><style>.st0{fill:#010101}</style><circle class="st0" cx="56.7" cy="24.8" r="5"/><circle class="st0" cx="56.7" cy="39.8" r="5"/><circle class="st0" cx="56.7" cy="54.8" r="5"/><circle class="st0" cx="243.3" cy="54.8" r="5"/><circle class="st0" cx="56.7" cy="69.8" r="5"/><circle class="st0" cx="56.7" cy="84.8" r="5"/><circle class="st0" cx="56.7" cy="99.8" r="5"/><circle class="st0" cx="56.7" cy="114.8" r="5"/><circle class="st0" cx="56.7" cy="129.8" r="5"/><circle class="st0" cx="56.7" cy="144.8" r="5"/><circle class="st0" cx="56.7" cy="159.8" r="5"/><circle class="st0" cx="56.7" cy="174.8" r="5"/><circle class="st0" cx="243.3" cy="24.8" r="5"/><circle class="st0" cx="243.3" cy="39.8" r="5"/><circle class="st0" cx="243.3" cy="69.8" r="5"/><circle class="st0" cx="243.3" cy="84.8" r="5"/><circle class="st0" cx="243.3" cy="99.8" r="5"/><circle class="st0" cx="243.3" cy="114.8" r="5"/><circle class="st0" cx="243.3" cy="129.8" r="5"/><circle class="st0" cx="243.3" cy="144.8" r="5"/><circle class="st0" cx="243.3" cy="159.8" r="5"/><circle class="st0" cx="243.3" cy="174.8" r="5"/></svg>