mtllib materials.mtl
v -0.04895771 0.04491162 -0.01964933
v -0.056795 -0.03470254 -0.0192371
v -0.004595518 -0.04198432 -0.08291519
v 0.1087025 0.03191888 0.1282429
v 0.1008652 -0.04769528 0.1286551
v 0.0086658 -0.0404135 0.1223331
v 0.0165031 0.03920066 0.1219209
v 0.08454788 -0.06200135 -0.1626051
v 0.09238511 0.0376128 -0.1630173
v 0.01324177 0.05762982 -0.08332741
v 0.1223661 -0.046152 0.06148136
v 0.1901327 -0.06735778 0.06016999
v 0.2086319 -0.06890106 0.1173437
v 0.1310886 0.04341424 0.06284499
v 0.2264694 -0.01928687 0.1169315
v 0.2088553 -0.007791519 0.06153357
v 0.262526 -0.07842648 0.09937888
v 0.1715094 -0.06616902 0.0217914
v 0.1463583 -0.0649637 -0.03153998
v 0.1234613 -0.06386638 -0.08009154
v 0.1036672 -0.06291771 -0.1220638
v 0.1318144 0.03572071 -0.07945561
v 0.154148 0.0346489 -0.03212428
v 0.1902318 0.0333972 0.02315491
v 0.1834741 -0.001448274 -0.2208958
v 0.2769742 -0.06672931 -0.01774913
v 0.2618227 -0.06552398 -0.07108057
v 0.2570193 -0.0649246 -0.08395272
v 0.2341223 -0.06382728 -0.1325043
v 0.2446203 -0.07475579 -0.147476
v 0.224826 -0.07380712 -0.1894482
v 0.2824765 0.004177451 -0.01527184
v 0.2663924 0.005429149 -0.07055116
v 0.4542523 -0.1459792 -0.0924899
v 0.261847 0.01584172 -0.08333981
v 0.2395135 0.01691353 -0.130671
v 0.4373091 -0.114754 -0.1782885
v 0.2529733 0.0148313 -0.14684
v 0.2333282 0.01577401 -0.1884734
v 0.1121693 0.03666341 -0.1210889
v 0.3708512 -0.1278987 -0.2167353
v 0.1947562 -0.09197879 -0.1799422
v 0.1756368 -0.09106243 -0.2204835
v 0.2032583 -0.002397656 -0.1789674
v 0.2613748 -0.09843075 -0.2677915
v 0.4597548 -0.1050718 -0.09001255
v 0.429101 -0.144774 -0.1358213
v 0.4336707 -0.1038201 -0.1352919
v 0.4198034 -0.07291579 -0.2150066
v 0.4144121 -0.1136568 -0.2168402
v 0.4421372 -0.0739876 -0.1776754
v 0.3792044 -0.08831143 -0.2160994
v 0.3595593 -0.08736873 -0.2477326
v 0.3510569 -0.12695 -0.2487075
v 0.2726569 -0.1389617 -0.2268378
v 0.2535375 -0.1380453 -0.2673792
v 0.281159 -0.09938014 -0.2258629
v 0.2703637 -0.04881227 0.1089668
v 0.254027 -0.0768832 0.06220526
v 0.2627497 -0.04731691 0.07356882
vn -0.7672808 0.07223228 -0.6372305
vn -0.06747427 0.01180775 0.9976512
vn 0.07846451 0.9969092 0.003933883
vn -0.07846457 -0.9969092 -0.00393423
vn -0.6595649 0.04878805 -0.7500625
vn -0.9024933 0.09102205 0.4209762
vn -0.05410912 0.9880267 0.1444834
vn -0.1065781 -0.9939566 0.02629553
vn -0.2986474 -0.9471213 -0.11735
vn 0.1034084 -0.005029785 0.9946263
vn 0.4048591 0.8668525 0.2909572
vn -0.006425636 0.01584834 -0.9998538
vn -0.1652907 -0.9858789 0.02686981
vn -0.1693911 -0.9838615 0.05764797
vn 0.6089648 -0.07133232 0.7899833
vn 1.040372E-05 -0.9997436 -0.02264396
vn -0.5243413 0.03773278 -0.8506718
vn -0.01159154 -0.9997669 -0.01821553
vn -0.008459919 -0.9997911 -0.0186067
vn -0.08088473 -0.996601 0.01561985
vn -0.1894373 -0.9812757 0.03480693
vn -0.01109173 0.02636855 -0.9995908
vn 0.5499236 0.8352135 -0.001540098
vn 0.3614045 -0.0806795 0.928912
vn 0.2125676 0.9701421 -0.1167876
vn -0.3211619 0.02296714 -0.9467458
vn -0.3761525 -0.9225568 0.08601429
vn 0.4264472 -0.02997329 0.9040157
vn 0.1495386 0.9875805 -0.04819701
vn -0.425169 0.04478424 -0.9040054
vn -0.2244336 -0.970871 0.08390015
vn 0.4794957 -0.0458153 0.8763475
vn 0.1448458 0.988386 -0.04596656
vn -0.4789279 0.04947091 -0.8764592
vn -0.322745 -0.9373737 0.1310201
vn -0.247365 -0.9642674 0.09486222
vn 0.5193605 -0.05269263 0.8529292
vn 0.3200048 0.9384896 -0.1297462
vn -0.4802587 0.03796988 -0.8763047
vn -0.5262181 0.04211345 -0.8493062
vn 0.5219411 -0.05879774 0.8509526
vn 0.4818998 -0.05114124 0.8747327
vn -0.4815142 0.05521944 -0.8746971
vn 0.3560495 -0.06020929 0.9325253
vn 0.4833137 0.867046 -0.1209926
vn -0.3425604 0.03685929 -0.9387725
vn 0.8613216 -0.08759602 -0.5004518
vn 0.3469225 -0.1031197 0.9322076
vn 0.4559526 -0.03400327 0.8893543
vn 0.3798784 0.9113369 -0.158611
vn -0.4036331 0.04769665 -0.9136769
vn 0.8542047 -0.09173637 -0.5117801
vn 0.4498572 -0.04827473 0.8917948
vn 0.534937 0.811832 -0.2340326
vn -0.3925794 0.04725525 -0.9185033
vn 0.8356692 -0.1672757 -0.5231405
vn -0.4258498 -0.8865469 0.1807941
vn 0.4650354 -0.05375278 0.8836586
vn 0.6678146 0.6813315 -0.2996852
vn 0.8880337 -0.1802107 -0.4229896
vn 0.4578762 -0.1200481 0.8808733
vn -0.4757511 0.08501119 -0.8754622
vn -0.3858587 0.1054592 -0.9165104
vn 0.4429686 -0.1077667 0.8900366
vn -0.4004013 0.09400824 -0.911505
vn 0.4369155 -0.06523655 0.8971338
vn 0.3501477 -0.05982999 0.9347818
vn -0.3615844 -0.9139099 0.1844596
vn 0.4627419 0.8525367 -0.2430048
vn 0.3576072 0.9148194 -0.1876765
vn 0.08584736 -0.02258997 0.9960521
vn 0.1487837 -0.04528527 0.9878323
vn 0.5574996 0.8301623 -0.00499678
vn 0.03366606 0.0122953 -0.9993576
vn 0.9567868 -0.1897146 -0.2203803
vn -0.1472166 -0.9890766 -0.007403665
vn 0.6025231 0.7922907 -0.09613274
vn 0.2383727 -0.3556696 0.9037021
vn 0.372814 0.235017 -0.8976507
vn -0.06743494 0.9863393 0.150291
vn 0.1504742 0.9882927 -0.02520131
vn -0.240041 -0.9532534 0.1835439
vn -0.004908376 -0.9996869 -0.02453808
vn 0.2788569 0.9584918 -0.05943308
vn -0.3148454 -0.9342999 0.1672007
vn 0.5167193 0.8030027 -0.2969645
vn -0.2199247 -0.9700629 0.1030113
vn -0.7221282 0.1264924 -0.6800959
vn -0.6890818 0.120432 -0.7146065
vn 0.1769976 0.9816617 -0.07079644
vn 0.5403953 -0.1130343 0.8337843
vn -1.319305E-05 -0.9997439 -0.02263098
vn 0.3200048 0.9384897 -0.1297463
vn 0.1448458 0.988386 -0.04596657
vn -9.385988E-06 -0.9997439 -0.02263297
vn 0.1495385 0.9875805 -0.04819703
vt -0.2163701 0.0007614428
vt -0.2097611 -0.003746484
vt -0.2049553 0.002978937
vt 0.2002908 0.0208927
vt 0.1935816 0.01653526
vt 0.198483 0.008666729
vt 0.2051922 0.01302416
vt -0.03928716 -0.1147619
vt -0.03544564 -0.1231987
vt -0.01988247 -0.1243762
vt 0.01989541 -0.1245483
vt 0.03545858 -0.1233708
vt 0.0393001 -0.114934
vt -0.2083207 -0.009546844
vt -0.2009848 0.0001052216
vt -0.209527 0.005289522
vt 0.01259853 0.1790386
vt -0.002880496 0.1810381
vt -0.003905402 0.173104
vt 0.01157363 0.1711045
vt 8.220958E-05 -0.09103955
vt 0.003674553 -0.08279642
vt -0.01966968 -0.0821604
vt 0.04377033 -0.1208201
vt 0.02027852 -0.123522
vt 0.02447171 -0.1306455
vt -0.01583992 -0.1381178
vt -0.01089851 -0.1431529
vt -0.01250922 -0.1318453
vt 0.2008601 -8.96713E-05
vt 0.2076867 0.004081343
vt 0.1942344 0.008742867
vt 0.07247303 -0.1373359
vt 0.07665315 -0.1317119
vt 0.06500448 -0.1268282
vt -0.2051928 0.01499984
vt -0.1975447 0.01025574
vt -0.1971595 0.01970935
vt 0.03561006 -0.1196507
vt 0.04161477 -0.1199296
vt 0.04185639 -0.1141744
vt 0.02229949 -0.1349821
vt 0.03810867 -0.1217275
vt 0.03223917 -0.1223035
vt 0.02689573 -0.1228278
vt 0.02227638 -0.123281
vt 0.01781452 -0.1237188
vt 0.2088075 -0.01026462
vt 0.2165054 -0.005601605
vt 0.2041249 -0.005576
vt 0.02296575 -0.09029178
vt 0.02818025 -0.08983258
vt 0.03461604 -0.08835792
vt -0.2110332 -0.001739732
vt -0.2023809 -0.006737977
vt -0.2027808 0.006236948
vt 0.02820968 -0.09288896
vt 0.0340847 -0.09237246
vt 0.03402129 -0.08110917
vt 0.02849185 -0.08068738
vt 0.0230209 -0.09280094
vt 0.02836921 -0.09232891
vt 0.02727239 -0.08013356
vt 0.02192408 -0.08060558
vt 0.02003593 -0.107131
vt 0.02465792 -0.1067055
vt 0.02248546 -0.09296986
vt 0.01786347 -0.09339533
vt 0.03851248 -0.1347938
vt 0.04131532 -0.1241141
vt 0.03531086 -0.1238301
vt -0.1983477 0.00955438
vt -0.1934655 0.01471203
vt -0.1979974 0.01900935
vt 0.02994431 -0.1805048
vt 0.02506483 -0.1725736
vt 0.01926057 -0.1737668
vt 0.2029927 -0.006201285
vt 0.2113036 -0.000405776
vt 0.2043897 0.007378427
vt -0.04982203 -0.1305411
vt -0.04344851 -0.1322651
vt -0.04322322 -0.1200487
vt -0.2099126 -0.001210193
vt -0.2012192 -0.006135853
vt -0.1959725 0.004883594
vt -0.2022182 0.0082813
vt 0.01976221 -0.1431582
vt 0.0252784 -0.1437277
vt 0.025243 -0.1229205
vt 0.2025681 -0.008281447
vt 0.211253 -0.003340866
vt 0.2044303 0.006619441
vt 0.1973098 0.00277655
vt -0.03186429 -0.1196017
vt -0.02549323 -0.108089
vt -0.03070354 -0.1075846
vt -0.2113637 -0.003079158
vt -0.202681 -0.00802773
vt -0.1974121 0.003025192
vt -0.204532 0.006875017
vt 0.02723461 -0.1205208
vt 0.0325755 -0.1199711
vt 0.02969585 -0.09922083
vt 0.2029073 -0.007907091
vt 0.2115765 -0.002934917
vt 0.2036587 0.008635458
vt -0.02652621 -0.1192122
vt -0.01972265 -0.1058111
vt -0.02430589 -0.1053689
vt -0.2113518 -0.002659916
vt -0.2026821 -0.007632968
vt -0.2034297 0.008907499
vt 0.02478881 -0.1356399
vt 0.02940033 -0.1351128
vt 0.02689372 -0.1199712
vt 0.02010814 -0.1371438
vt 0.02456682 -0.1366747
vt 0.02212242 -0.1257686
vt 0.01766375 -0.1262378
vt 0.2026305 -0.006829049
vt 0.2112838 -0.001827244
vt 0.2030165 0.006134043
vt -0.02766782 -0.1510876
vt -0.02050791 -0.1404237
vt -0.02511512 -0.1398978
vt -0.202931 0.005288725
vt -0.1951616 0.0007544723
vt -0.1902418 0.009253223
vt -0.2023443 -0.006561716
vt -0.1949822 0.001847621
vt -0.202733 0.00641355
vt 0.2029649 0.006363731
vt 0.195213 0.001793378
vt 0.2025935 -0.006599786
vt 0.2036759 0.008786629
vt 0.1959092 0.004243534
vt 0.2029368 -0.007756477
vt -0.2026791 -0.007471802
vt -0.1956463 0.004525155
vt -0.2034136 0.009069254
vt 0.1976379 0.003924177
vt 0.2038817 0.007338339
vt 0.1857828 0.02006311
vt -0.0218181 -0.1630477
vt -0.01609464 -0.1624132
vt -0.02227258 -0.1409279
vt -0.2028468 0.007791583
vt -0.1965999 0.004396071
vt -0.1817841 0.01724235
vt -0.1853186 0.01936087
vt -0.03147123 0.1625538
vt -0.02667358 0.1640026
vt -0.02748833 0.1680566
vt -0.03249243 0.1665464
vt 0.1865915 0.02052137
vt 0.1830517 0.01838415
vt 0.1984358 0.004374458
vt 0.197603 0.002625794
vt 0.2047175 0.006479817
vt 0.184315 0.01882127
vt -0.03862986 -0.1480114
vt -0.03343467 -0.1486531
vt -0.03100638 -0.1269514
vt -0.2044509 0.007040195
vt -0.1973295 0.003193039
vt -0.1877887 0.02115525
vt -0.04369964 0.1619116
vt -0.03943069 0.1632874
vt -0.04049879 0.1672516
vt -0.04464033 0.1659163
vt 0.1958251 0.004014706
vt 0.2036007 0.008542447
vt 0.1880644 0.01704661
vt -0.04230131 -0.1694562
vt -0.03775854 -0.1702078
vt -0.03875593 -0.1521032
vt -0.2033136 0.008504821
vt -0.1955285 0.00399113
vt -0.188013 0.01667409
vt -0.04673283 0.151798
vt -0.04314353 0.1529233
vt -0.0439725 0.1568839
vt -0.04752665 0.1557691
vt 0.02475519 -0.1538711
vt 0.02919974 -0.153283
vt 0.02704622 -0.1432774
vt 0.02260166 -0.1438654
vt 0.1953495 0.0006993524
vt 0.2031218 0.005235094
vt 0.1904294 0.009189431
vt -0.05800642 -0.1834215
vt -0.05352401 -0.1846094
vt -0.04942941 -0.1719615
vt -0.05391184 -0.1707737
vt -0.01783006 0.1583135
vt -0.01749876 0.1542886
vt -0.01305664 0.1548949
vt -0.01323549 0.1589405
vt 0.190014 0.009941663
vt 0.1867426 0.007554724
vt 0.1949772 0.001476682
vt -0.1948367 0.001487224
vt -0.1866146 0.007582205
vt -0.1898769 0.009962698
vt -0.1956457 0.004259515
vt -0.1848418 0.01455395
vt -0.1881175 0.01693492
vt 0.1880812 0.01783519
vt 0.184811 0.015452
vt 0.1958929 0.004833831
vt -0.1976444 0.003644225
vt -0.1845647 0.0194531
vt -0.1880781 0.02159284
vt 0.2049546 0.007239378
vt 0.1880381 0.02168102
vt 0.1845312 0.01954619
vt 0.2038016 0.007489981
vt 0.1975579 0.004075652
vt 0.202408 -0.006090083
vt 0.05168153 -0.1214558
vt 0.0468098 -0.1226317
vt 0.04845262 -0.1421725
vt -0.05955784 -0.1584535
vt -0.05678264 -0.1376356
vt -0.06181195 -0.1362116
vt -0.04068872 -0.1237176
vt -0.04490066 -0.1226243
vt -0.04914087 -0.1444589
vt 0.2082459 0.005266381
vt 0.1985035 0.01370892
vt 0.1948026 0.009953643
vt 0.1978418 0.004925477
vt 0.2015824 0.008641342
vt 0.1970097 0.01141802
vt 0.01999538 -0.1748074
vt 0.02579615 -0.1735972
vt 0.01781858 -0.1699206
vt -0.1955433 0.02349801
vt -0.1910592 0.01915088
vt -0.187342 0.02443825
vt 0.08209879 0.1471836
vt 0.08582564 0.146362
vt 0.08744872 0.1491313
vt 0.08391248 0.1499229
vt 0.03577365 -0.10999
vt 0.0319991 -0.1094263
vt 0.02943504 -0.1153592
vt 0.005832556 -0.1851508
vt 0.001655366 -0.1797966
vt -0.001817061 -0.1808332
vt 0.2052453 -0.002306305
vt 0.2025101 -0.003986388
vt 0.2056094 -0.008841824
vt -0.191801 0.04276801
vt -0.1941549 0.04505995
vt -0.1999648 0.04154398
vt 0.003766043 -0.07983686
vt -0.01431467 -0.07457844
vt -0.01957828 -0.07920403
vt -0.03275359 -0.1173769
vt -0.03437675 -0.1243841
vt -0.01652991 -0.1303885
vt 0.04853147 -0.1485997
vt 0.06584285 -0.140222
vt 0.0632363 -0.1341297
vt 0.04079974 -0.1012401
vt 0.035245 -0.09689101
vt 0.01729013 -0.1037825
vt -0.0230166 -0.1292804
vt -0.0287544 -0.1297685
vt -0.02892129 -0.1401785
vt 0.03651983 -0.1193583
vt 0.03288441 -0.1203243
vt 0.03500912 -0.1350954
vt -0.06442247 -0.1641268
vt -0.05981352 -0.1474055
vt -0.06327558 -0.1460312
vt 0.03428016 -0.09903555
vt 0.02989526 -0.09997881
vt 0.0321579 -0.120372
vt -0.2042006 0.0004342015
vt -0.2122167 0.006611119
vt -0.2156297 -0.001707867
vt -0.206332 0.01137477
vt -0.2136263 0.002603129
vt -0.2055461 -0.003489803
vt -0.0413729 -0.1235221
vt -0.02546156 -0.1369139
vt -0.02056467 -0.1266101
vt 0.2165049 -0.005938588
vt 0.2123832 -4.394445E-05
vt 0.2041244 -0.005913465
vt 0.03461697 -0.08836292
vt 0.01376066 -0.09110752
vt 0.01837993 -0.09070073
vt -0.02766783 -0.1510876
vt -0.02306062 -0.1516136
vt -0.02050791 -0.1404237
vt -0.02652622 -0.1192122
vt -0.02194298 -0.1196543
vt -0.01972266 -0.1058111
vt 0.03461684 -0.08836211
vt 0.0183798 -0.09069993
vt 0.02296655 -0.09029599
vt -0.0318643 -0.1196017
vt -0.02665397 -0.1201061
vt -0.02549324 -0.108089
o group887781576
g mesh887781576
usemtl mat21
f 3/3/1 2/2/1 1/1/1
f 7/7/2 6/6/2 5/5/2 4/4/2
f 1/10/3 7/9/3 4/8/3
f 5/13/4 6/12/4 2/11/4
f 9/16/5 8/15/5 3/14/5
f 2/20/6 6/19/6 7/18/6 1/17/6
f 4/23/7 10/22/7 1/21/7
f 2/26/8 3/25/8 5/24/8
f 12/29/9 5/28/9 11/27/9
f 13/32/10 4/31/10 5/30/10
f 15/35/11 14/34/11 4/33/11
f 16/38/12 11/37/12 14/36/12
f 17/41/13 13/40/13 12/39/13
f 8/47/14 21/46/14 20/45/14 19/44/14 18/43/14 3/42/14
f 18/50/15 14/49/15 11/48/15
f 24/53/16 23/52/16 22/51/16
f 25/56/17 8/55/17 9/54/17
f 27/60/18 26/59/18 18/58/18 19/57/18
f 29/64/19 28/63/19 19/62/19 20/61/19
f 31/68/20 30/67/20 20/66/20 21/65/20
f 12/71/21 13/70/21 5/69/21
f 16/74/22 12/73/22 11/72/22
f 15/77/23 16/76/23 14/75/23
f 32/80/24 24/79/24 18/78/24
f 33/83/25 23/82/25 24/81/25
f 33/87/26 27/86/26 19/85/26 23/84/26
f 34/90/27 26/89/27 27/88/27
f 28/94/28 35/93/28 23/92/28 19/91/28
f 35/97/29 36/96/29 23/95/29
f 36/101/30 29/100/30 20/99/30 22/98/30
f 37/104/31 28/103/31 29/102/31
f 38/107/32 22/106/32 20/105/32
f 38/110/33 39/109/33 22/108/33
f 39/113/34 21/112/34 40/111/34
f 41/116/35 30/115/35 31/114/35
f 43/120/36 42/119/36 21/118/36 8/117/36
f 44/123/37 40/122/37 21/121/37
f 44/126/38 25/125/38 40/124/38
f 45/129/39 43/128/39 25/127/39
f 25/132/40 43/131/40 8/130/40
f 21/135/41 42/134/41 44/133/41
f 20/138/42 30/137/42 38/136/42
f 39/141/43 31/140/43 21/139/43
f 46/144/44 32/143/44 26/142/44
f 46/147/45 33/146/45 32/145/45
f 48/151/46 47/150/46 27/149/46 33/148/46
f 48/155/47 46/154/47 34/153/47 47/152/47
f 26/158/48 34/157/48 46/156/48
f 37/161/49 35/160/49 28/159/49
f 49/164/50 36/163/50 35/162/50
f 49/167/51 29/166/51 36/165/51
f 49/171/52 51/170/52 37/169/52 50/168/52
f 52/174/53 38/173/53 30/172/53
f 52/177/54 39/176/54 38/175/54
f 53/180/55 31/179/55 39/178/55
f 53/184/56 52/183/56 41/182/56 54/181/56
f 56/188/57 55/187/57 42/186/57 43/185/57
f 57/191/58 44/190/58 42/189/58
f 57/195/59 45/194/59 25/193/59 44/192/59
f 57/199/60 55/198/60 56/197/60 45/196/60
f 42/202/61 55/201/61 57/200/61
f 45/205/62 56/204/62 43/203/62
f 53/208/63 54/207/63 31/206/63
f 30/211/64 41/210/64 52/209/64
f 49/214/65 50/213/65 29/212/65
f 37/217/66 51/216/66 35/215/66
f 18/220/67 26/219/67 32/218/67
f 27/223/68 47/222/68 34/221/68
f 46/226/69 48/225/69 33/224/69
f 35/229/70 51/228/70 49/227/70
f 13/232/71 15/231/71 4/230/71
f 58/235/72 15/234/72 13/233/72
f 58/238/73 16/237/73 15/236/73
f 59/241/74 12/240/74 16/239/74
f 60/245/75 58/244/75 17/243/75 59/242/75
f 12/248/76 59/247/76 17/246/76
f 58/251/77 60/250/77 16/249/77
f 13/254/78 17/253/78 58/252/78
f 16/257/79 60/256/79 59/255/79
f 4/260/80 14/259/80 10/258/80
f 10/263/81 14/262/81 24/261/81
f 18/266/82 11/265/82 3/264/82
f 3/269/83 11/268/83 5/267/83
f 24/272/84 32/271/84 33/270/84
f 31/275/85 54/274/85 41/273/85
f 52/278/86 53/277/86 39/276/86
f 29/281/87 50/280/87 37/279/87
f 1/284/88 10/283/88 3/282/88
f 3/287/89 10/286/89 9/285/89
f 9/290/90 10/289/90 24/288/90
f 18/293/91 24/292/91 14/291/91
f 40/296/92 9/295/92 24/294/92
f 25/299/93 9/298/93 40/297/93
f 39/302/94 40/301/94 22/300/94
f 22/305/95 40/304/95 24/303/95
f 36/308/96 22/307/96 23/306/96
